<svg version="1.1" id="Layer_1" xmlns="http://www.w3.org/2000/svg" xmlns:xlink="http://www.w3.org/1999/xlink" x="0px" y="0px"
	 width="100%" viewBox="0 0 1235 1235" enable-background="new 0 0 1235 1235" xml:space="preserve">
<path fill="#FFFFFF" opacity="1.000000" stroke="none" 
	d="
M693.000000,1236.000000 
	C462.000000,1236.000000 231.500000,1236.000000 1.000000,1236.000000 
	C1.000000,824.333313 1.000000,412.666656 1.000000,1.000000 
	C412.666656,1.000000 824.333313,1.000000 1236.000000,1.000000 
	C1236.000000,412.666656 1236.000000,824.333313 1236.000000,1236.000000 
	C1055.166626,1236.000000 874.333313,1236.000000 693.000000,1236.000000 
M669.602356,723.592163 
	C670.038940,724.094360 670.434875,724.984985 670.918701,725.035706 
	C673.998840,725.358215 677.202881,726.012695 680.136353,725.420288 
	C681.198120,725.205872 682.155396,721.885132 682.246582,719.939026 
	C682.518921,714.127075 682.133667,708.281616 682.481628,702.477783 
	C682.566956,701.053650 684.414246,698.612305 685.546326,698.556335 
	C692.805359,698.197632 700.090759,698.373291 707.927490,698.373291 
	C707.927490,705.557312 707.926208,712.175537 707.927856,718.793762 
	C707.929626,725.925354 711.187683,728.292297 718.057312,726.123291 
	C719.408203,725.696838 720.722473,725.154541 722.127625,724.638489 
	C722.127625,706.105286 722.130249,687.805481 722.126099,669.505676 
	C722.124695,663.314758 720.860352,662.412415 714.471985,662.023987 
	C709.607666,661.728149 707.848267,662.853210 707.913208,669.152710 
	C707.976013,675.248779 707.926819,681.345886 707.926819,687.760864 
	C700.532166,687.760864 693.894592,687.855774 687.261841,687.719849 
	C684.054688,687.654114 682.064575,686.243225 682.281372,682.479736 
	C682.529785,678.166870 682.347839,673.828918 682.341919,669.501831 
	C682.337891,666.584045 682.801270,663.205139 679.120361,662.189819 
	C674.071228,660.796997 671.592224,662.261719 669.385132,667.954956 
	C669.474792,686.281921 669.564514,704.608887 669.602356,723.592163 
M731.713135,512.837402 
	C738.211426,515.075012 744.709778,517.312683 751.435303,519.628540 
	C784.240784,437.315918 816.806396,355.605255 849.371948,273.894592 
	C849.762695,274.003387 850.153442,274.112213 850.544189,274.221039 
	C833.112488,360.706696 824.882996,448.476776 813.067627,535.919861 
	C828.130737,541.297424 842.878418,546.562378 858.317566,552.074158 
	C907.669495,477.059845 956.985718,402.099731 1004.224487,330.297333 
	C977.689941,411.183838 949.952576,495.736816 922.091003,580.668335 
	C941.392761,587.543213 959.831970,594.110962 978.475586,600.751465 
	C1011.674866,492.976501 1044.662231,385.889618 1077.732422,278.533875 
	C1052.500854,269.529663 1027.788208,260.710602 1003.062805,251.887024 
	C957.592712,317.702393 913.160461,383.843567 872.790588,452.759094 
	C887.464905,374.489594 895.184509,295.551697 904.012390,216.532715 
	C878.481079,207.434311 853.178650,198.417496 827.687073,189.333282 
	C784.433411,293.459595 741.442383,396.953552 698.303528,500.803406 
	C709.547241,504.818176 720.278137,508.649841 731.713135,512.837402 
M260.253510,268.240631 
	C252.275238,256.990814 244.168594,245.828461 236.404617,234.432663 
	C234.338242,231.399673 232.669281,230.688339 229.212753,232.123917 
	C216.998459,237.196823 204.655304,241.960693 192.343353,246.796829 
	C181.309570,251.130920 170.252533,255.405777 159.181580,259.716156 
	C174.607346,374.450531 189.965790,488.684082 205.391861,603.420593 
	C225.259094,595.636719 244.591263,588.062561 264.048676,580.439270 
	C261.900330,566.372437 259.842072,552.611633 257.687286,538.865967 
	C255.529755,525.102722 253.307724,511.349426 251.041000,497.603851 
	C250.492783,494.279327 251.000641,492.169098 254.792206,490.994080 
	C260.620087,489.187988 266.223022,486.655884 271.920715,484.429993 
	C288.680939,477.882477 305.440796,471.334015 322.340179,464.731506 
	C323.072296,465.760376 323.643005,466.549927 324.200989,467.348419 
	C339.712799,489.546600 355.279022,511.707214 370.665039,533.992249 
	C372.635345,536.846008 374.231232,537.483887 377.485748,536.091675 
	C385.843536,532.516541 394.378906,529.356384 402.845459,526.035767 
	C413.222229,521.965820 423.601196,517.901550 434.269470,513.721130 
	C376.170563,431.747345 318.430817,350.280273 260.253510,268.240631 
M560.791870,232.132874 
	C587.160583,223.159149 612.902832,226.173065 638.387695,236.888535 
	C641.612793,216.264343 644.732666,196.312988 647.911743,175.983185 
	C644.645935,174.595642 641.536194,173.046707 638.278992,171.927032 
	C614.873047,163.881165 590.913513,162.415329 566.504456,165.861389 
	C537.505493,169.955429 512.272461,181.830154 491.251190,202.251663 
	C462.552795,230.131226 449.211487,265.266602 444.046967,304.061981 
	C441.222717,325.277527 441.426361,346.532379 443.861176,367.821289 
	C446.786407,393.398254 453.001526,417.979370 465.032990,440.848846 
	C483.681702,476.296326 511.855835,499.772522 551.415344,508.565155 
	C571.658325,513.064392 592.040771,512.682800 612.418884,509.543427 
	C627.042725,507.290497 641.245789,503.619629 654.637024,497.046387 
	C658.614929,495.093781 659.954163,492.879974 658.649963,488.554810 
	C657.412476,484.450745 656.869324,480.138123 656.005310,475.920410 
	C653.242737,462.434052 650.473083,448.949219 647.657471,435.226196 
	C645.672852,436.168518 644.203674,436.926300 642.688293,437.576538 
	C622.490662,446.243744 601.476135,450.689484 579.566833,447.520569 
	C550.671631,443.341187 530.613159,426.560913 519.167358,400.359833 
	C502.733337,362.740021 501.085052,323.773254 513.077576,284.591278 
	C520.544495,260.195465 535.856445,242.122833 560.791870,232.132874 
M979.500000,689.194946 
	C935.857849,689.194885 892.215515,689.241150 848.573669,689.119446 
	C844.447876,689.107910 843.010925,690.303223 843.071289,694.526917 
	C843.144104,699.624695 845.799255,700.590637 850.081116,700.588745 
	C946.193909,700.546021 1042.306641,700.557190 1138.419434,700.551941 
	C1144.026855,700.551636 1146.088501,698.651428 1146.185059,693.962402 
	C1146.301636,688.307739 1142.299805,689.209595 1138.911133,689.208313 
	C1086.107422,689.188721 1033.303711,689.194885 979.500000,689.194946 
M259.500031,689.194702 
	C206.025909,689.194702 152.551788,689.195068 99.077667,689.194214 
	C90.071472,689.194031 89.346855,690.063110 91.114204,699.541626 
	C94.000717,699.865845 97.071922,700.510559 100.143486,700.512329 
	C195.264114,700.565552 290.384766,700.555969 385.505402,700.555298 
	C386.838043,700.555298 388.287292,700.872498 389.471222,700.450317 
	C390.708282,700.009155 392.306458,699.063538 392.680878,697.972656 
	C394.720459,692.030396 392.600494,689.196228 386.439117,689.195923 
	C344.459442,689.193604 302.479736,689.194702 259.500031,689.194702 
M194.434937,802.034607 
	C189.353561,794.012817 184.313187,785.964417 179.144470,777.999390 
	C178.409897,776.867371 177.110031,775.446350 175.971985,775.351013 
	C172.059631,775.023376 168.102966,775.225098 163.662964,775.225098 
	C163.662964,794.789612 163.602081,813.717407 163.814789,832.642090 
	C163.827499,833.773376 165.902618,835.616028 167.238876,835.846313 
	C170.108368,836.340759 173.122131,835.997986 176.659653,835.997986 
	C176.659653,833.772644 176.661102,831.982971 176.659409,830.193359 
	C176.650589,820.873413 176.581421,811.552612 176.704880,802.234436 
	C176.720825,801.030579 177.732071,799.839905 178.282242,798.643127 
	C179.237091,799.404236 180.484482,799.980286 181.101227,800.955261 
	C186.811066,809.981201 192.456802,819.048645 198.031601,828.158813 
	C203.116638,836.468689 206.172119,837.735107 215.876770,835.184204 
	C215.876770,815.340637 215.876770,795.469788 215.876770,775.541321 
	C211.613190,775.541321 207.708725,775.541321 203.330978,775.541321 
	C203.330978,787.630798 203.330978,799.376038 203.330978,812.817322 
	C201.000137,810.951843 199.559143,810.170044 198.644775,808.982666 
	C197.144775,807.034851 195.986664,804.823853 194.434937,802.034607 
M782.869385,787.518921 
	C778.580933,779.594788 771.616821,776.027893 763.062012,773.850037 
	C752.920776,771.268188 738.983093,777.311096 733.593140,785.676147 
	C726.091797,797.317993 725.428040,809.611633 731.183716,822.158569 
	C736.631470,834.034180 754.578064,840.593811 764.149353,837.518982 
	C775.076843,834.008423 782.848694,827.816956 786.271729,817.007385 
	C789.398438,807.133545 789.233765,797.243713 782.869385,787.518921 
M447.629486,802.095093 
	C448.126251,801.049744 448.592102,799.988464 449.124573,798.961609 
	C454.094330,789.377197 446.306671,776.806580 436.763794,775.653625 
	C424.499939,774.172119 411.921600,775.293396 399.455933,775.293396 
	C399.455933,795.769165 399.455933,815.778137 399.455933,835.988586 
	C402.232300,835.988586 404.583252,835.756042 406.871246,836.036560 
	C411.780304,836.638550 413.407440,834.611694 413.102203,829.794739 
	C412.748596,824.214233 413.019867,818.594116 413.019867,812.597656 
	C418.418488,812.597656 423.063721,812.505005 427.703613,812.622620 
	C432.693909,812.749084 435.566864,815.356995 436.350128,820.386292 
	C436.881958,823.801086 436.860870,827.347107 437.783966,830.639038 
	C438.340698,832.624329 439.906891,835.232971 441.598969,835.784790 
	C444.253174,836.650513 447.397156,836.014526 450.575256,836.014526 
	C450.708832,827.103394 450.892761,818.798340 445.778748,811.669006 
	C441.913269,806.280273 441.724701,806.415527 447.629486,802.095093 
M769.496094,698.356812 
	C774.619934,698.356812 779.743835,698.356812 784.959229,698.356812 
	C784.959229,695.026306 784.959229,692.167480 784.959229,689.076172 
	C776.585083,689.076172 768.599915,689.052246 760.615051,689.090210 
	C758.118652,689.102051 755.766541,689.002075 755.706116,685.672485 
	C755.643921,682.249817 755.692322,678.825134 755.692322,674.864136 
	C766.816711,674.864136 777.203552,674.864136 787.904297,674.864136 
	C787.904297,672.485352 787.916565,670.673584 787.902039,668.862061 
	C787.853333,662.774841 787.180054,662.120056 780.990540,662.119263 
	C770.664062,662.117859 760.337524,662.113464 750.011047,662.120850 
	C744.042419,662.125122 742.656921,663.478027 742.654907,669.314087 
	C742.649170,686.302856 742.831970,703.294678 742.543335,720.278503 
	C742.458618,725.264282 744.529724,726.634705 748.914856,726.593811 
	C758.074646,726.508301 767.237854,726.680359 776.395508,726.517029 
	C780.576599,726.442444 784.747986,725.824097 788.790466,725.464233 
	C789.655029,711.276855 789.066040,713.801331 778.756287,713.623596 
	C778.090271,713.612122 777.423828,713.622070 776.757629,713.622070 
	C769.849121,713.622070 762.940613,713.622131 756.104980,713.622131 
	C756.104980,708.074219 756.104980,703.353577 756.104980,698.356445 
	C760.520447,698.356445 764.509583,698.356445 769.496094,698.356812 
M1145.570801,781.823730 
	C1145.454834,774.567200 1143.479736,773.628296 1132.603271,775.930725 
	C1132.603271,781.802979 1132.820190,787.779480 1132.464355,793.721680 
	C1132.364136,795.395813 1130.660400,798.310791 1129.563599,798.372559 
	C1122.175171,798.788330 1114.751953,798.589172 1106.853516,798.589172 
	C1106.853516,790.434021 1106.853516,783.032410 1106.853516,775.605225 
	C1101.949341,775.605225 1097.565063,775.605225 1092.936279,775.605225 
	C1092.936279,794.651367 1092.867920,813.290588 1093.078003,831.926636 
	C1093.093262,833.286133 1094.971069,835.573853 1096.254028,835.785278 
	C1099.593628,836.335632 1103.084106,835.970398 1107.162354,835.970398 
	C1107.162354,826.961304 1107.162354,818.585022 1107.162354,810.304321 
	C1115.924561,810.304321 1124.008301,810.304321 1132.586548,810.304321 
	C1132.586548,818.955505 1132.586548,827.226318 1132.586548,835.977783 
	C1134.869873,835.977783 1136.659546,835.977783 1138.449219,835.977783 
	C1145.579834,835.977722 1145.575806,835.977722 1145.573975,828.721985 
	C1145.570068,813.400635 1145.570801,798.079285 1145.570801,781.823730 
M380.714874,826.060913 
	C374.262054,825.846680 367.810425,825.578857 361.356018,825.436829 
	C356.944489,825.339783 352.529053,825.418213 347.734283,825.418213 
	C347.734283,820.596558 347.703888,816.622559 347.744781,812.649353 
	C347.772888,809.917847 349.111877,808.977539 351.909546,809.135498 
	C359.358002,809.555847 366.822266,809.701416 374.281097,809.928345 
	C378.540588,810.057983 378.273773,806.964783 378.453278,804.097229 
	C378.656677,800.847656 377.234528,799.617554 374.016876,799.727051 
	C369.189209,799.891296 364.351959,799.774963 359.518768,799.775269 
	C346.903229,799.776062 346.900635,799.775269 347.936890,787.188782 
	C347.960907,786.897278 348.227112,786.625671 348.680023,785.795593 
	C357.504761,785.795593 366.634521,785.546631 375.741150,785.898010 
	C380.473236,786.080627 380.701050,783.434387 380.950012,780.043945 
	C381.222809,776.329468 379.726746,775.076477 376.025269,775.127502 
	C363.694672,775.297180 351.357941,775.327759 339.028625,775.116333 
	C334.874146,775.045166 333.458282,776.476990 333.497467,780.596313 
	C333.652710,796.927673 333.508148,813.261719 333.625183,829.593689 
	C333.640564,831.741516 334.526062,833.883118 334.925659,835.659180 
	C350.698517,835.659180 365.624817,835.659180 381.012360,835.659180 
	C381.012360,832.514709 381.012360,829.714905 380.714874,826.060913 
M478.469177,816.899841 
	C476.716187,816.448059 474.982666,815.720703 473.206665,815.595337 
	C467.565887,815.197144 465.174744,818.647278 467.609161,823.760498 
	C468.583679,825.807312 470.061859,827.656494 471.518799,829.424316 
	C478.666168,838.097290 494.595184,840.672424 505.286926,835.934875 
	C512.221619,832.862000 516.801270,827.726379 518.422302,820.922913 
	C520.270935,813.164246 514.625671,805.204956 506.332733,802.404968 
	C500.311096,800.371887 494.104919,798.880310 487.967407,797.196960 
	C482.705414,795.753723 480.102264,791.765991 482.213196,788.272583 
	C485.533234,782.778503 499.216644,782.378662 501.637573,788.203186 
	C503.908661,793.667175 507.676300,793.523865 512.057251,793.299072 
	C515.794800,793.107300 517.542603,790.898010 515.778625,787.771912 
	C513.885010,784.416016 511.630127,780.858215 508.619415,778.613892 
	C499.272583,771.646545 488.805359,771.264282 478.853027,776.784241 
	C470.875000,781.209167 466.572235,787.869812 469.734589,796.840576 
	C472.211365,803.866516 478.438812,806.729553 484.959686,808.903320 
	C490.342316,810.697510 495.863800,812.122009 501.118958,814.222656 
	C502.651733,814.835388 504.435577,817.223389 504.408295,818.767700 
	C504.368286,821.037964 503.454987,824.242249 501.781219,825.374207 
	C493.292084,831.115906 483.897369,827.628845 478.469177,816.899841 
M107.049644,836.709351 
	C108.960861,837.148010 110.873161,837.581909 112.783096,838.026123 
	C121.565201,840.068237 139.563477,835.099854 141.882294,822.478821 
	C143.092865,815.889832 143.708939,809.141296 143.969986,802.440491 
	C144.316956,793.533447 144.055588,784.602722 144.055588,775.576660 
	C139.044937,775.576660 134.660049,775.576660 130.068451,775.576660 
	C130.068451,788.765625 130.073242,801.572449 130.066681,814.379333 
	C130.062653,822.245911 128.897385,823.336670 121.446617,826.178711 
	C114.317993,828.897888 104.369354,824.387512 104.394577,814.123291 
	C104.423218,802.469727 104.417343,790.816040 104.395142,779.162415 
	C104.392761,777.913452 104.181465,776.664917 104.082565,775.585144 
	C99.377235,775.585144 95.124229,775.585144 90.499077,775.585144 
	C90.499077,789.418823 90.269356,802.871033 90.660965,816.305115 
	C90.758598,819.654053 92.705055,823.010681 94.077042,826.247070 
	C96.388878,831.700500 101.363464,834.057495 107.049644,836.709351 
M912.476685,787.520874 
	C912.476685,783.580139 912.476685,779.639343 912.476685,775.602905 
	C907.502441,775.602905 903.134583,775.602905 898.470947,775.602905 
	C898.470947,776.986816 898.470764,777.962219 898.470886,778.937622 
	C898.472107,790.256287 898.040588,801.598389 898.652039,812.883972 
	C898.971375,818.777649 899.579956,824.968994 904.175720,829.851440 
	C914.259766,840.564636 929.961548,840.572571 941.433411,833.530701 
	C948.063232,829.461243 951.240784,823.170898 951.164795,815.275391 
	C951.083130,806.787170 951.145142,798.297546 951.144714,789.808533 
	C951.144470,785.060608 951.144714,780.312683 951.144714,775.516174 
	C946.552673,775.516174 942.646851,775.516174 938.322632,775.516174 
	C938.322632,777.458252 938.322510,779.081543 938.322693,780.704834 
	C938.323792,790.858337 938.387329,801.012390 938.308899,811.165283 
	C938.226440,821.839355 936.928284,824.270752 928.922363,826.468323 
	C922.126526,828.333801 911.922852,825.372375 912.405762,814.976624 
	C912.814697,806.173950 912.481140,797.336792 912.476685,787.520874 
M502.861542,712.610352 
	C502.346222,711.959290 501.618317,711.386169 501.346954,710.645691 
	C496.051727,696.197144 490.723480,681.759460 485.617035,667.243896 
	C484.327179,663.577271 481.806641,662.781738 478.496307,662.812012 
	C474.918579,662.844788 471.299286,662.319702 469.655426,666.977417 
	C466.917358,674.735718 463.763641,682.346558 460.848175,690.043335 
	C456.772919,700.801819 452.703827,711.563538 448.801086,722.384766 
	C448.444733,723.372986 448.912994,725.429871 449.681152,725.919922 
	C453.155945,728.136169 460.126709,725.919067 461.811066,722.197021 
	C462.610901,720.429565 463.072205,718.496704 463.573273,716.608582 
	C464.760956,712.133118 467.016876,710.962036 471.441681,711.668945 
	C475.011871,712.239258 478.742645,712.424500 482.336975,712.086853 
	C488.654053,711.493408 490.316803,712.387390 491.663666,718.350708 
	C493.473114,726.362366 499.434235,728.773254 506.763336,724.357422 
	C505.585571,720.691040 504.401001,717.003479 502.861542,712.610352 
M1065.869629,801.484680 
	C1063.092651,794.134583 1060.062500,786.867676 1057.611694,779.410400 
	C1055.292236,772.353027 1049.703491,776.007446 1045.502441,775.238342 
	C1041.526733,774.510559 1041.003540,778.098389 1040.076904,780.503479 
	C1035.627075,792.052673 1031.418457,803.694763 1027.101318,815.295166 
	C1024.599365,822.017944 1022.054016,828.724487 1019.319275,835.993774 
	C1022.716614,835.993774 1025.518188,835.888000 1028.308472,836.021057 
	C1031.635864,836.179810 1033.268433,835.187012 1033.924072,831.454895 
	C1035.233276,824.002136 1036.986084,822.920593 1044.427979,822.924866 
	C1048.254272,822.927063 1052.109497,823.212708 1055.899414,822.839783 
	C1060.201782,822.416382 1061.918213,824.711182 1062.870728,828.260193 
	C1065.018311,836.262695 1070.769287,838.655884 1078.337524,834.854675 
	C1074.209229,823.981018 1070.088135,813.126648 1065.869629,801.484680 
M297.691132,802.909729 
	C296.621887,806.003174 295.716492,809.168823 294.400146,812.153259 
	C293.896301,813.295593 292.453125,814.023560 291.437988,814.940369 
	C290.896210,813.730774 290.253876,812.554016 289.845764,811.300842 
	C289.542542,810.369751 289.697174,809.287720 289.384735,808.361694 
	C285.734955,797.544800 282.035217,786.744812 278.198151,775.499023 
	C274.410248,775.499023 270.031616,775.499023 265.224243,775.499023 
	C267.893341,783.821960 270.455231,791.743652 272.973511,799.679199 
	C276.486938,810.750793 279.860931,821.869019 283.598724,832.863892 
	C284.062286,834.227356 286.258759,835.413757 287.879425,835.863403 
	C289.735199,836.378296 291.924988,835.618774 293.828949,836.043579 
	C299.737640,837.362061 301.165771,833.250244 302.536469,829.137146 
	C306.614075,816.901184 310.636414,804.646545 314.604279,792.374512 
	C316.383575,786.871521 317.981598,781.309875 319.837311,775.197083 
	C316.406433,775.197083 313.736328,775.476501 311.150635,775.128540 
	C307.681488,774.661743 306.056885,776.041626 305.124939,779.271179 
	C302.908875,786.950623 300.455292,794.561523 297.691132,802.909729 
M819.882568,833.167297 
	C819.882568,826.067688 819.882568,818.968079 819.882568,811.415649 
	C826.879517,811.415649 833.186890,811.223145 839.475586,811.483093 
	C843.686035,811.657166 845.912720,810.900146 845.869629,805.864685 
	C845.829163,801.145020 844.240295,799.737427 839.723206,800.029419 
	C834.418945,800.372253 829.066895,800.285217 823.756226,799.999939 
	C822.427734,799.928589 820.190796,798.501160 820.069641,797.492920 
	C819.624207,793.787048 819.892944,789.995300 819.892944,785.743774 
	C830.069946,785.743774 839.484070,785.743774 849.133179,785.743774 
	C849.133179,782.018799 849.133179,778.806580 849.133179,775.186035 
	C836.171936,775.186035 823.542969,775.314758 810.919434,775.111145 
	C806.890625,775.046204 805.783325,776.544983 805.819946,780.375488 
	C805.975891,796.685425 805.808472,812.998474 805.977661,829.308105 
	C806.000610,831.523071 807.421021,835.667236 807.921753,835.625732 
	C811.894836,835.296692 816.404297,838.072388 819.882568,833.167297 
M608.744934,675.060059 
	C612.868958,675.060059 616.992981,675.060059 621.707214,675.060059 
	C621.707214,677.324219 621.707336,679.102356 621.707153,680.880432 
	C621.706116,694.186523 621.719604,707.492554 621.696167,720.798645 
	C621.687988,725.417297 624.318787,726.730164 628.449951,726.604797 
	C632.365295,726.485962 634.935181,725.698425 634.834351,720.752686 
	C634.563293,707.452087 634.857666,694.140747 634.669678,680.837280 
	C634.610229,676.628479 635.795471,674.590515 640.319031,675.003174 
	C643.453308,675.289124 646.637573,674.972046 649.793823,675.084167 
	C654.048096,675.235352 654.090637,672.454651 654.005798,669.417114 
	C653.914551,666.152588 654.477173,662.239319 649.679871,662.178833 
	C635.710693,662.002563 621.737244,662.041443 607.766785,662.155396 
	C603.040039,662.193909 602.469482,665.903992 602.372925,669.469177 
	C602.277222,673.003784 603.455750,675.684875 608.744934,675.060059 
M545.462402,662.801575 
	C535.134216,662.801941 524.805603,662.750732 514.477966,662.828979 
	C510.509888,662.859009 508.447815,665.476929 508.562469,669.691895 
	C508.668457,673.590210 510.301544,675.275757 514.424622,674.930969 
	C518.670471,674.575989 522.969055,674.852173 527.734009,674.852173 
	C527.734009,692.014771 527.734009,708.434875 527.734009,725.467651 
	C532.323486,725.467651 536.407532,725.467651 540.524475,725.467651 
	C540.622925,723.729248 540.710022,722.903259 540.710449,722.077271 
	C540.717407,708.084290 540.781250,694.090698 540.667542,680.098633 
	C540.636780,676.314636 541.905090,674.506042 545.905518,674.795959 
	C549.054443,675.024109 552.303711,675.245361 555.368469,674.692993 
	C556.980347,674.402405 559.186829,672.685181 559.582703,671.200867 
	C561.199097,665.140015 559.200928,662.866394 552.940430,662.804993 
	C550.775085,662.783752 548.609314,662.802490 545.462402,662.801575 
M647.423279,823.506226 
	C647.423279,827.579163 647.423279,831.652100 647.423279,835.812500 
	C649.100403,835.901428 649.921021,835.990723 650.740662,835.981506 
	C660.263672,835.874451 661.022461,837.591553 660.072510,826.690674 
	C659.130676,815.884521 662.835022,807.187744 668.689209,798.627869 
	C673.667358,791.348694 677.841980,783.519897 682.812927,775.196167 
	C678.924255,775.196167 675.822205,775.302795 672.731201,775.163635 
	C670.093201,775.044800 668.220032,775.438477 666.766541,778.203247 
	C663.777832,783.888245 660.253357,789.292603 656.922607,794.796326 
	C654.814087,798.280457 653.080322,798.297302 650.997192,794.810486 
	C647.782043,789.428589 644.669189,783.985107 641.423767,778.621765 
	C640.683533,777.398499 639.650757,775.525696 638.630432,775.442078 
	C634.291748,775.086426 629.907166,775.291016 624.845947,775.291016 
	C629.338684,782.648071 633.438660,788.972290 637.140686,795.521484 
	C641.921082,803.978210 649.453918,811.451538 647.423279,823.506226 
M1015.185730,775.184448 
	C1000.527832,775.179626 985.868103,775.303345 971.213135,775.093445 
	C966.670837,775.028381 966.620239,777.510925 966.558472,780.820984 
	C966.493164,784.316772 967.467224,786.140869 971.362000,785.919739 
	C975.623474,785.677673 979.909302,785.864685 984.624573,785.864685 
	C984.624573,788.328186 984.624756,790.135925 984.624573,791.943604 
	C984.623230,804.935852 984.632507,817.928101 984.610596,830.920349 
	C984.606506,833.346008 984.521973,835.863159 987.841858,836.000488 
	C991.416016,836.148376 995.001099,836.033997 999.139648,836.033997 
	C999.139648,818.906250 999.139648,802.518127 999.139648,785.869873 
	C1004.200073,785.869873 1008.699036,786.085083 1013.158386,785.758728 
	C1014.826538,785.636658 1017.825439,784.138000 1017.771057,783.464600 
	C1017.549316,780.719421 1020.337830,777.133728 1015.185730,775.184448 
M596.256409,796.532349 
	C596.256042,795.201721 596.255249,793.871155 596.255432,792.540527 
	C596.256531,785.791382 596.256592,785.790894 602.830444,785.790833 
	C605.158936,785.790771 607.511719,785.579956 609.810669,785.841370 
	C614.110474,786.330383 615.275635,784.351013 615.263733,780.361511 
	C615.252380,776.544128 614.065002,775.027527 610.057434,775.116638 
	C599.916870,775.341858 589.768005,775.191772 579.622437,775.191956 
	C574.855591,775.192078 570.088684,775.191956 565.396240,775.191956 
	C565.396240,779.083130 565.396240,782.297058 565.396240,785.787354 
	C569.931702,785.787354 574.072998,785.937927 578.197876,785.742493 
	C581.890991,785.567505 583.222351,787.081421 583.160522,790.727051 
	C583.005493,799.872131 583.105286,809.021423 583.103760,818.169067 
	C583.102844,823.934265 583.103577,829.699524 583.103577,835.695679 
	C587.765198,835.695679 591.805786,835.695679 596.255920,835.695679 
	C596.255920,822.761719 596.255920,810.142273 596.256409,796.532349 
M548.636902,791.502686 
	C548.636902,786.231262 548.636902,780.959900 548.636902,775.602844 
	C543.937561,775.602844 539.766357,775.602844 535.721313,775.602844 
	C535.721313,795.911987 535.721313,815.780457 535.721313,835.833801 
	C540.037720,835.833801 543.991577,835.833801 548.636597,835.833801 
	C548.636597,821.318848 548.636597,806.910339 548.636902,791.502686 
M250.791443,804.500000 
	C250.792068,796.340454 250.920975,788.177246 250.684494,780.024597 
	C250.637512,778.404907 249.378372,775.605408 248.355072,775.447754 
	C244.706207,774.885742 240.918060,775.228027 237.444336,775.228027 
	C237.444336,795.962341 237.444336,815.837219 237.444336,835.999634 
	C239.735977,835.999634 241.556931,836.000244 243.377884,835.999512 
	C250.778046,835.996399 250.783890,835.996277 250.790741,828.479858 
	C250.797729,820.819885 250.791626,813.159973 250.791443,804.500000 
z"/>
<path fill="#CC0101" opacity="1.000000" stroke="none" 
	d="
M731.361084,512.659424 
	C720.278137,508.649841 709.547241,504.818176 698.303528,500.803406 
	C741.442383,396.953552 784.433411,293.459595 827.687073,189.333282 
	C853.178650,198.417496 878.481079,207.434311 904.012390,216.532715 
	C895.184509,295.551697 887.464905,374.489594 872.790588,452.759094 
	C913.160461,383.843567 957.592712,317.702393 1003.062805,251.887024 
	C1027.788208,260.710602 1052.500854,269.529663 1077.732422,278.533875 
	C1044.662231,385.889618 1011.674866,492.976501 978.475586,600.751465 
	C959.831970,594.110962 941.392761,587.543213 922.091003,580.668335 
	C949.952576,495.736816 977.689941,411.183838 1004.224487,330.297333 
	C956.985718,402.099731 907.669495,477.059845 858.317566,552.074158 
	C842.878418,546.562378 828.130737,541.297424 813.067627,535.919861 
	C824.882996,448.476776 833.112488,360.706696 850.544189,274.221039 
	C850.153442,274.112213 849.762695,274.003387 849.371948,273.894592 
	C816.806396,355.605255 784.240784,437.315918 751.435303,519.628540 
	C744.709778,517.312683 738.211426,515.075012 731.361084,512.659424 
M850.433228,272.960541 
	C850.455688,272.463745 850.478088,271.966949 850.500549,271.470154 
	C850.317871,271.825745 850.135132,272.181305 850.433228,272.960541 
z"/>
<path fill="#CC0101" opacity="1.000000" stroke="none" 
	d="
M260.472290,268.526917 
	C318.430817,350.280273 376.170563,431.747345 434.269470,513.721130 
	C423.601196,517.901550 413.222229,521.965820 402.845459,526.035767 
	C394.378906,529.356384 385.843536,532.516541 377.485748,536.091675 
	C374.231232,537.483887 372.635345,536.846008 370.665039,533.992249 
	C355.279022,511.707214 339.712799,489.546600 324.200989,467.348419 
	C323.643005,466.549927 323.072296,465.760376 322.340179,464.731506 
	C305.440796,471.334015 288.680939,477.882477 271.920715,484.429993 
	C266.223022,486.655884 260.620087,489.187988 254.792206,490.994080 
	C251.000641,492.169098 250.492783,494.279327 251.041000,497.603851 
	C253.307724,511.349426 255.529755,525.102722 257.687286,538.865967 
	C259.842072,552.611633 261.900330,566.372437 264.048676,580.439270 
	C244.591263,588.062561 225.259094,595.636719 205.391861,603.420593 
	C189.965790,488.684082 174.607346,374.450531 159.181580,259.716156 
	C170.252533,255.405777 181.309570,251.130920 192.343353,246.796829 
	C204.655304,241.960693 216.998459,237.196823 229.212753,232.123917 
	C232.669281,230.688339 234.338242,231.399673 236.404617,234.432663 
	C244.168594,245.828461 252.275238,256.990814 260.472290,268.526917 
M232.229202,325.248932 
	C226.676819,316.595581 221.124435,307.942261 215.083298,298.527191 
	C222.933258,345.149048 230.598801,390.675568 238.321899,436.544037 
	C256.741333,429.313568 274.941223,422.169281 293.433655,414.910156 
	C282.928711,399.649750 272.809875,385.053284 262.801056,370.381775 
	C252.697464,355.571350 242.702972,340.686493 232.229202,325.248932 
z"/>
<path fill="#CC0101" opacity="1.000000" stroke="none" 
	d="
M560.438354,232.301331 
	C535.856445,242.122833 520.544495,260.195465 513.077576,284.591278 
	C501.085052,323.773254 502.733337,362.740021 519.167358,400.359833 
	C530.613159,426.560913 550.671631,443.341187 579.566833,447.520569 
	C601.476135,450.689484 622.490662,446.243744 642.688293,437.576538 
	C644.203674,436.926300 645.672852,436.168518 647.657471,435.226196 
	C650.473083,448.949219 653.242737,462.434052 656.005310,475.920410 
	C656.869324,480.138123 657.412476,484.450745 658.649963,488.554810 
	C659.954163,492.879974 658.614929,495.093781 654.637024,497.046387 
	C641.245789,503.619629 627.042725,507.290497 612.418884,509.543427 
	C592.040771,512.682800 571.658325,513.064392 551.415344,508.565155 
	C511.855835,499.772522 483.681702,476.296326 465.032990,440.848846 
	C453.001526,417.979370 446.786407,393.398254 443.861176,367.821289 
	C441.426361,346.532379 441.222717,325.277527 444.046967,304.061981 
	C449.211487,265.266602 462.552795,230.131226 491.251190,202.251663 
	C512.272461,181.830154 537.505493,169.955429 566.504456,165.861389 
	C590.913513,162.415329 614.873047,163.881165 638.278992,171.927032 
	C641.536194,173.046707 644.645935,174.595642 647.911743,175.983185 
	C644.732666,196.312988 641.612793,216.264343 638.387695,236.888535 
	C612.902832,226.173065 587.160583,223.159149 560.438354,232.301331 
z"/>
<path fill="#C72F41" opacity="1.000000" stroke="none" 
	d="
M980.000000,689.195007 
	C1033.303711,689.194885 1086.107422,689.188721 1138.911133,689.208313 
	C1142.299805,689.209595 1146.301636,688.307739 1146.185059,693.962402 
	C1146.088501,698.651428 1144.026855,700.551636 1138.419434,700.551941 
	C1042.306641,700.557190 946.193909,700.546021 850.081116,700.588745 
	C845.799255,700.590637 843.144104,699.624695 843.071289,694.526917 
	C843.010925,690.303223 844.447876,689.107910 848.573669,689.119446 
	C892.215515,689.241150 935.857849,689.194885 980.000000,689.195007 
z"/>
<path fill="#C72F41" opacity="1.000000" stroke="none" 
	d="
M260.000061,689.194702 
	C302.479736,689.194702 344.459442,689.193604 386.439117,689.195923 
	C392.600494,689.196228 394.720459,692.030396 392.680878,697.972656 
	C392.306458,699.063538 390.708282,700.009155 389.471222,700.450317 
	C388.287292,700.872498 386.838043,700.555298 385.505402,700.555298 
	C290.384766,700.555969 195.264114,700.565552 100.143486,700.512329 
	C97.071922,700.510559 94.000717,699.865845 91.114204,699.541626 
	C89.346855,690.063110 90.071472,689.194031 99.077667,689.194214 
	C152.551788,689.195068 206.025909,689.194702 260.000061,689.194702 
z"/>
<path fill="#C62A3C" opacity="1.000000" stroke="none" 
	d="
M194.559647,802.379211 
	C195.986664,804.823853 197.144775,807.034851 198.644775,808.982666 
	C199.559143,810.170044 201.000137,810.951843 203.330978,812.817322 
	C203.330978,799.376038 203.330978,787.630798 203.330978,775.541321 
	C207.708725,775.541321 211.613190,775.541321 215.876770,775.541321 
	C215.876770,795.469788 215.876770,815.340637 215.876770,835.184204 
	C206.172119,837.735107 203.116638,836.468689 198.031601,828.158813 
	C192.456802,819.048645 186.811066,809.981201 181.101227,800.955261 
	C180.484482,799.980286 179.237091,799.404236 178.282257,798.643127 
	C177.732071,799.839905 176.720825,801.030579 176.704880,802.234436 
	C176.581421,811.552612 176.650589,820.873413 176.659409,830.193359 
	C176.661102,831.982971 176.659653,833.772644 176.659653,835.997986 
	C173.122131,835.997986 170.108368,836.340759 167.238876,835.846313 
	C165.902618,835.616028 163.827499,833.773376 163.814789,832.642090 
	C163.602081,813.717407 163.662964,794.789612 163.662964,775.225098 
	C168.102966,775.225098 172.059631,775.023376 175.971985,775.351013 
	C177.110031,775.446350 178.409897,776.867371 179.144470,777.999390 
	C184.313187,785.964417 189.353561,794.012817 194.559647,802.379211 
z"/>
<path fill="#C62B3D" opacity="1.000000" stroke="none" 
	d="
M783.073486,787.828003 
	C789.233765,797.243713 789.398438,807.133545 786.271729,817.007385 
	C782.848694,827.816956 775.076843,834.008423 764.149353,837.518982 
	C754.578064,840.593811 736.631470,834.034180 731.183716,822.158569 
	C725.428040,809.611633 726.091797,797.317993 733.593140,785.676147 
	C738.983093,777.311096 752.920776,771.268188 763.062012,773.850037 
	C771.616821,776.027893 778.580933,779.594788 783.073486,787.828003 
M774.187744,807.304443 
	C773.755676,803.693054 773.701477,799.986633 772.821045,796.488098 
	C770.143555,785.848755 757.256226,782.021423 748.504822,788.445923 
	C741.039856,793.926025 740.425781,807.223083 743.034485,815.033081 
	C746.912170,826.642395 759.824341,830.254700 768.319092,821.502747 
	C771.481750,818.244263 772.284302,812.694946 774.187744,807.304443 
z"/>
<path fill="#C62A3C" opacity="1.000000" stroke="none" 
	d="
M447.381287,802.375122 
	C441.724701,806.415527 441.913269,806.280273 445.778748,811.669006 
	C450.892761,818.798340 450.708832,827.103394 450.575256,836.014526 
	C447.397156,836.014526 444.253174,836.650513 441.598969,835.784790 
	C439.906891,835.232971 438.340698,832.624329 437.783966,830.639038 
	C436.860870,827.347107 436.881958,823.801086 436.350128,820.386292 
	C435.566864,815.356995 432.693909,812.749084 427.703613,812.622620 
	C423.063721,812.505005 418.418488,812.597656 413.019867,812.597656 
	C413.019867,818.594116 412.748596,824.214233 413.102203,829.794739 
	C413.407440,834.611694 411.780304,836.638550 406.871246,836.036560 
	C404.583252,835.756042 402.232300,835.988586 399.455933,835.988586 
	C399.455933,815.778137 399.455933,795.769165 399.455933,775.293396 
	C411.921600,775.293396 424.499939,774.172119 436.763794,775.653625 
	C446.306671,776.806580 454.094330,789.377197 449.124573,798.961609 
	C448.592102,799.988464 448.126251,801.049744 447.381287,802.375122 
M431.070557,786.087219 
	C426.131439,785.865295 421.183472,785.412720 416.260040,785.600647 
	C415.170898,785.642212 413.430817,787.847595 413.240540,789.228821 
	C411.452301,802.209106 412.190643,802.963867 425.197906,802.698303 
	C426.350433,802.674805 427.499451,802.492798 428.650726,802.391174 
	C432.608063,802.041687 435.690918,800.613525 436.479889,796.217651 
	C437.271027,791.809998 436.229645,788.314331 431.070557,786.087219 
z"/>
<path fill="#C42336" opacity="1.000000" stroke="none" 
	d="
M768.997437,698.356628 
	C764.509583,698.356445 760.520447,698.356445 756.104980,698.356445 
	C756.104980,703.353577 756.104980,708.074219 756.104980,713.622131 
	C762.940613,713.622131 769.849121,713.622070 776.757629,713.622070 
	C777.423828,713.622070 778.090271,713.612122 778.756287,713.623596 
	C789.066040,713.801331 789.655029,711.276855 788.790466,725.464233 
	C784.747986,725.824097 780.576599,726.442444 776.395508,726.517029 
	C767.237854,726.680359 758.074646,726.508301 748.914856,726.593811 
	C744.529724,726.634705 742.458618,725.264282 742.543335,720.278503 
	C742.831970,703.294678 742.649170,686.302856 742.654907,669.314087 
	C742.656921,663.478027 744.042419,662.125122 750.011047,662.120850 
	C760.337524,662.113464 770.664062,662.117859 780.990540,662.119263 
	C787.180054,662.120056 787.853333,662.774841 787.902039,668.862061 
	C787.916565,670.673584 787.904297,672.485352 787.904297,674.864136 
	C777.203552,674.864136 766.816711,674.864136 755.692322,674.864136 
	C755.692322,678.825134 755.643921,682.249817 755.706116,685.672485 
	C755.766541,689.002075 758.118652,689.102051 760.615051,689.090210 
	C768.599915,689.052246 776.585083,689.076172 784.959229,689.076172 
	C784.959229,692.167480 784.959229,695.026306 784.959229,698.356812 
	C779.743835,698.356812 774.619934,698.356812 768.997437,698.356628 
z"/>
<path fill="#C5283A" opacity="1.000000" stroke="none" 
	d="
M1145.570190,782.290833 
	C1145.570801,798.079285 1145.570068,813.400635 1145.573975,828.721985 
	C1145.575806,835.977722 1145.579834,835.977722 1138.449219,835.977783 
	C1136.659546,835.977783 1134.869873,835.977783 1132.586548,835.977783 
	C1132.586548,827.226318 1132.586548,818.955505 1132.586548,810.304321 
	C1124.008301,810.304321 1115.924561,810.304321 1107.162354,810.304321 
	C1107.162354,818.585022 1107.162354,826.961304 1107.162354,835.970398 
	C1103.084106,835.970398 1099.593628,836.335632 1096.254028,835.785278 
	C1094.971069,835.573853 1093.093262,833.286133 1093.078003,831.926636 
	C1092.867920,813.290588 1092.936279,794.651367 1092.936279,775.605225 
	C1097.565063,775.605225 1101.949341,775.605225 1106.853516,775.605225 
	C1106.853516,783.032410 1106.853516,790.434021 1106.853516,798.589172 
	C1114.751953,798.589172 1122.175171,798.788330 1129.563599,798.372559 
	C1130.660400,798.310791 1132.364136,795.395813 1132.464355,793.721680 
	C1132.820190,787.779480 1132.603271,781.802979 1132.603271,775.930725 
	C1143.479736,773.628296 1145.454834,774.567200 1145.570190,782.290833 
z"/>
<path fill="#C42336" opacity="1.000000" stroke="none" 
	d="
M669.635254,667.056702 
	C671.592224,662.261719 674.071228,660.796997 679.120361,662.189819 
	C682.801270,663.205139 682.337891,666.584045 682.341919,669.501831 
	C682.347839,673.828918 682.529785,678.166870 682.281372,682.479736 
	C682.064575,686.243225 684.054688,687.654114 687.261841,687.719849 
	C693.894592,687.855774 700.532166,687.760864 707.926819,687.760864 
	C707.926819,681.345886 707.976013,675.248779 707.913208,669.152710 
	C707.848267,662.853210 709.607666,661.728149 714.471985,662.023987 
	C720.860352,662.412415 722.124695,663.314758 722.126099,669.505676 
	C722.130249,687.805481 722.127625,706.105286 722.127625,724.638489 
	C720.722473,725.154541 719.408203,725.696838 718.057312,726.123291 
	C711.187683,728.292297 707.929626,725.925354 707.927856,718.793762 
	C707.926208,712.175537 707.927490,705.557312 707.927490,698.373291 
	C700.090759,698.373291 692.805359,698.197632 685.546326,698.556335 
	C684.414246,698.612305 682.566956,701.053650 682.481628,702.477783 
	C682.133667,708.281616 682.518921,714.127075 682.246582,719.939026 
	C682.155396,721.885132 681.198120,725.205872 680.136353,725.420288 
	C677.202881,726.012695 673.998840,725.358215 670.918701,725.035706 
	C670.434875,724.984985 670.038940,724.094360 669.962280,723.107544 
	C670.546814,722.027039 670.966431,721.431519 670.967773,720.835083 
	C671.005493,703.859253 671.023193,686.883179 670.945190,669.907654 
	C670.940796,668.955322 670.091370,668.006958 669.635254,667.056702 
z"/>
<path fill="#C5293B" opacity="1.000000" stroke="none" 
	d="
M380.863617,826.488037 
	C381.012360,829.714905 381.012360,832.514709 381.012360,835.659180 
	C365.624817,835.659180 350.698517,835.659180 334.925659,835.659180 
	C334.526062,833.883118 333.640564,831.741516 333.625183,829.593689 
	C333.508148,813.261719 333.652710,796.927673 333.497467,780.596313 
	C333.458282,776.476990 334.874146,775.045166 339.028625,775.116333 
	C351.357941,775.327759 363.694672,775.297180 376.025269,775.127502 
	C379.726746,775.076477 381.222809,776.329468 380.950012,780.043945 
	C380.701050,783.434387 380.473236,786.080627 375.741150,785.898010 
	C366.634521,785.546631 357.504761,785.795593 348.680023,785.795593 
	C348.227112,786.625671 347.960907,786.897278 347.936890,787.188782 
	C346.900635,799.775269 346.903229,799.776062 359.518768,799.775269 
	C364.351959,799.774963 369.189209,799.891296 374.016876,799.727051 
	C377.234528,799.617554 378.656677,800.847656 378.453278,804.097229 
	C378.273773,806.964783 378.540588,810.057983 374.281097,809.928345 
	C366.822266,809.701416 359.358002,809.555847 351.909546,809.135498 
	C349.111877,808.977539 347.772888,809.917847 347.744781,812.649353 
	C347.703888,816.622559 347.734283,820.596558 347.734283,825.418213 
	C352.529053,825.418213 356.944489,825.339783 361.356018,825.436829 
	C367.810425,825.578857 374.262054,825.846680 380.863617,826.488037 
z"/>
<path fill="#C5293B" opacity="1.000000" stroke="none" 
	d="
M478.748779,817.150085 
	C483.897369,827.628845 493.292084,831.115906 501.781219,825.374207 
	C503.454987,824.242249 504.368286,821.037964 504.408295,818.767700 
	C504.435577,817.223389 502.651733,814.835388 501.118958,814.222656 
	C495.863800,812.122009 490.342316,810.697510 484.959686,808.903320 
	C478.438812,806.729553 472.211365,803.866516 469.734589,796.840576 
	C466.572235,787.869812 470.875000,781.209167 478.853027,776.784241 
	C488.805359,771.264282 499.272583,771.646545 508.619415,778.613892 
	C511.630127,780.858215 513.885010,784.416016 515.778625,787.771912 
	C517.542603,790.898010 515.794800,793.107300 512.057251,793.299072 
	C507.676300,793.523865 503.908661,793.667175 501.637573,788.203186 
	C499.216644,782.378662 485.533234,782.778503 482.213196,788.272583 
	C480.102264,791.765991 482.705414,795.753723 487.967407,797.196960 
	C494.104919,798.880310 500.311096,800.371887 506.332733,802.404968 
	C514.625671,805.204956 520.270935,813.164246 518.422302,820.922913 
	C516.801270,827.726379 512.221619,832.862000 505.286926,835.934875 
	C494.595184,840.672424 478.666168,838.097290 471.518799,829.424316 
	C470.061859,827.656494 468.583679,825.807312 467.609161,823.760498 
	C465.174744,818.647278 467.565887,815.197144 473.206665,815.595337 
	C474.982666,815.720703 476.716187,816.448059 478.748779,817.150085 
z"/>
<path fill="#C5293B" opacity="1.000000" stroke="none" 
	d="
M106.712677,836.501465 
	C101.363464,834.057495 96.388878,831.700500 94.077042,826.247070 
	C92.705055,823.010681 90.758598,819.654053 90.660965,816.305115 
	C90.269356,802.871033 90.499077,789.418823 90.499077,775.585144 
	C95.124229,775.585144 99.377235,775.585144 104.082565,775.585144 
	C104.181465,776.664917 104.392761,777.913452 104.395142,779.162415 
	C104.417343,790.816040 104.423218,802.469727 104.394577,814.123291 
	C104.369354,824.387512 114.317993,828.897888 121.446617,826.178711 
	C128.897385,823.336670 130.062653,822.245911 130.066681,814.379333 
	C130.073242,801.572449 130.068451,788.765625 130.068451,775.576660 
	C134.660049,775.576660 139.044937,775.576660 144.055588,775.576660 
	C144.055588,784.602722 144.316956,793.533447 143.969986,802.440491 
	C143.708939,809.141296 143.092865,815.889832 141.882294,822.478821 
	C139.563477,835.099854 121.565201,840.068237 112.783096,838.026123 
	C110.873161,837.581909 108.960861,837.148010 106.712677,836.501465 
z"/>
<path fill="#C5293B" opacity="1.000000" stroke="none" 
	d="
M912.476440,788.017883 
	C912.481140,797.336792 912.814697,806.173950 912.405762,814.976624 
	C911.922852,825.372375 922.126526,828.333801 928.922363,826.468323 
	C936.928284,824.270752 938.226440,821.839355 938.308899,811.165283 
	C938.387329,801.012390 938.323792,790.858337 938.322693,780.704834 
	C938.322510,779.081543 938.322632,777.458252 938.322632,775.516174 
	C942.646851,775.516174 946.552673,775.516174 951.144714,775.516174 
	C951.144714,780.312683 951.144470,785.060608 951.144714,789.808533 
	C951.145142,798.297546 951.083130,806.787170 951.164795,815.275391 
	C951.240784,823.170898 948.063232,829.461243 941.433411,833.530701 
	C929.961548,840.572571 914.259766,840.564636 904.175720,829.851440 
	C899.579956,824.968994 898.971375,818.777649 898.652039,812.883972 
	C898.040588,801.598389 898.472107,790.256287 898.470886,778.937622 
	C898.470764,777.962219 898.470947,776.986816 898.470947,775.602905 
	C903.134583,775.602905 907.502441,775.602905 912.476685,775.602905 
	C912.476685,779.639343 912.476685,783.580139 912.476440,788.017883 
z"/>
<path fill="#C5293B" opacity="1.000000" stroke="none" 
	d="
M503.039001,712.963135 
	C504.401001,717.003479 505.585571,720.691040 506.763336,724.357422 
	C499.434235,728.773254 493.473114,726.362366 491.663666,718.350708 
	C490.316803,712.387390 488.654053,711.493408 482.336975,712.086853 
	C478.742645,712.424500 475.011871,712.239258 471.441681,711.668945 
	C467.016876,710.962036 464.760956,712.133118 463.573273,716.608582 
	C463.072205,718.496704 462.610901,720.429565 461.811066,722.197021 
	C460.126709,725.919067 453.155945,728.136169 449.681152,725.919922 
	C448.912994,725.429871 448.444733,723.372986 448.801086,722.384766 
	C452.703827,711.563538 456.772919,700.801819 460.848175,690.043335 
	C463.763641,682.346558 466.917358,674.735718 469.655426,666.977417 
	C471.299286,662.319702 474.918579,662.844788 478.496307,662.812012 
	C481.806641,662.781738 484.327179,663.577271 485.617035,667.243896 
	C490.723480,681.759460 496.051727,696.197144 501.346954,710.645691 
	C501.618317,711.386169 502.346222,711.959290 503.039001,712.963135 
M482.218842,693.959351 
	C480.950256,689.788757 479.681702,685.618103 478.413147,681.447449 
	C477.932220,681.395264 477.451324,681.343018 476.970398,681.290771 
	C474.639282,687.637695 472.308167,693.984558 469.696289,701.095825 
	C474.965942,701.095825 479.537659,701.095825 484.884583,701.095825 
	C483.948364,698.567139 483.228973,696.624084 482.218842,693.959351 
z"/>
<path fill="#C5293B" opacity="1.000000" stroke="none" 
	d="
M1065.918457,801.878479 
	C1070.088135,813.126648 1074.209229,823.981018 1078.337524,834.854675 
	C1070.769287,838.655884 1065.018311,836.262695 1062.870728,828.260193 
	C1061.918213,824.711182 1060.201782,822.416382 1055.899414,822.839783 
	C1052.109497,823.212708 1048.254272,822.927063 1044.427979,822.924866 
	C1036.986084,822.920593 1035.233276,824.002136 1033.924072,831.454895 
	C1033.268433,835.187012 1031.635864,836.179810 1028.308472,836.021057 
	C1025.518188,835.888000 1022.716614,835.993774 1019.319275,835.993774 
	C1022.054016,828.724487 1024.599365,822.017944 1027.101318,815.295166 
	C1031.418457,803.694763 1035.627075,792.052673 1040.076904,780.503479 
	C1041.003540,778.098389 1041.526733,774.510559 1045.502441,775.238342 
	C1049.703491,776.007446 1055.292236,772.353027 1057.611694,779.410400 
	C1060.062500,786.867676 1063.092651,794.134583 1065.918457,801.878479 
M1048.518799,812.158325 
	C1050.916748,812.028259 1053.314575,811.898193 1056.541016,811.723206 
	C1053.907715,804.852234 1051.591919,798.809631 1049.276123,792.766968 
	C1048.811646,792.927734 1048.347290,793.088562 1047.882935,793.249329 
	C1045.836426,799.238037 1043.789917,805.226746 1041.420532,812.160278 
	C1044.073120,812.160278 1045.835205,812.160278 1048.518799,812.158325 
z"/>
<path fill="#C5283A" opacity="1.000000" stroke="none" 
	d="
M297.894409,802.554932 
	C300.455292,794.561523 302.908875,786.950623 305.124939,779.271179 
	C306.056885,776.041626 307.681488,774.661743 311.150635,775.128540 
	C313.736328,775.476501 316.406433,775.197083 319.837311,775.197083 
	C317.981598,781.309875 316.383575,786.871521 314.604279,792.374512 
	C310.636414,804.646545 306.614075,816.901184 302.536469,829.137146 
	C301.165771,833.250244 299.737640,837.362061 293.828949,836.043579 
	C291.924988,835.618774 289.735199,836.378296 287.879425,835.863403 
	C286.258759,835.413757 284.062286,834.227356 283.598724,832.863892 
	C279.860931,821.869019 276.486938,810.750793 272.973511,799.679199 
	C270.455231,791.743652 267.893341,783.821960 265.224243,775.499023 
	C270.031616,775.499023 274.410248,775.499023 278.198151,775.499023 
	C282.035217,786.744812 285.734955,797.544800 289.384735,808.361694 
	C289.697174,809.287720 289.542542,810.369751 289.845764,811.300842 
	C290.253876,812.554016 290.896210,813.730774 291.437988,814.940369 
	C292.453125,814.023560 293.896301,813.295593 294.400146,812.153259 
	C295.716492,809.168823 296.621887,806.003174 297.894409,802.554932 
z"/>
<path fill="#C62A3D" opacity="1.000000" stroke="none" 
	d="
M819.868164,833.631226 
	C816.404297,838.072388 811.894836,835.296692 807.921753,835.625732 
	C807.421021,835.667236 806.000610,831.523071 805.977661,829.308105 
	C805.808472,812.998474 805.975891,796.685425 805.819946,780.375488 
	C805.783325,776.544983 806.890625,775.046204 810.919434,775.111145 
	C823.542969,775.314758 836.171936,775.186035 849.133179,775.186035 
	C849.133179,778.806580 849.133179,782.018799 849.133179,785.743774 
	C839.484070,785.743774 830.069946,785.743774 819.892944,785.743774 
	C819.892944,789.995300 819.624207,793.787048 820.069641,797.492920 
	C820.190796,798.501160 822.427734,799.928589 823.756226,799.999939 
	C829.066895,800.285217 834.418945,800.372253 839.723206,800.029419 
	C844.240295,799.737427 845.829163,801.145020 845.869629,805.864685 
	C845.912720,810.900146 843.686035,811.657166 839.475586,811.483093 
	C833.186890,811.223145 826.879517,811.415649 819.882568,811.415649 
	C819.882568,818.968079 819.882568,826.067688 819.868164,833.631226 
z"/>
<path fill="#C42436" opacity="1.000000" stroke="none" 
	d="
M608.282471,675.060425 
	C603.455750,675.684875 602.277222,673.003784 602.372925,669.469177 
	C602.469482,665.903992 603.040039,662.193909 607.766785,662.155396 
	C621.737244,662.041443 635.710693,662.002563 649.679871,662.178833 
	C654.477173,662.239319 653.914551,666.152588 654.005798,669.417114 
	C654.090637,672.454651 654.048096,675.235352 649.793823,675.084167 
	C646.637573,674.972046 643.453308,675.289124 640.319031,675.003174 
	C635.795471,674.590515 634.610229,676.628479 634.669678,680.837280 
	C634.857666,694.140747 634.563293,707.452087 634.834351,720.752686 
	C634.935181,725.698425 632.365295,726.485962 628.449951,726.604797 
	C624.318787,726.730164 621.687988,725.417297 621.696167,720.798645 
	C621.719604,707.492554 621.706116,694.186523 621.707153,680.880432 
	C621.707336,679.102356 621.707214,677.324219 621.707214,675.060059 
	C616.992981,675.060059 612.868958,675.060059 608.282471,675.060425 
z"/>
<path fill="#C62A3C" opacity="1.000000" stroke="none" 
	d="
M545.953064,662.802246 
	C548.609314,662.802490 550.775085,662.783752 552.940430,662.804993 
	C559.200928,662.866394 561.199097,665.140015 559.582703,671.200867 
	C559.186829,672.685181 556.980347,674.402405 555.368469,674.692993 
	C552.303711,675.245361 549.054443,675.024109 545.905518,674.795959 
	C541.905090,674.506042 540.636780,676.314636 540.667542,680.098633 
	C540.781250,694.090698 540.717407,708.084290 540.710449,722.077271 
	C540.710022,722.903259 540.622925,723.729248 540.524475,725.467651 
	C536.407532,725.467651 532.323486,725.467651 527.734009,725.467651 
	C527.734009,708.434875 527.734009,692.014771 527.734009,674.852173 
	C522.969055,674.852173 518.670471,674.575989 514.424622,674.930969 
	C510.301544,675.275757 508.668457,673.590210 508.562469,669.691895 
	C508.447815,665.476929 510.509888,662.859009 514.477966,662.828979 
	C524.805603,662.750732 535.134216,662.801941 545.953064,662.802246 
z"/>
<path fill="#C5283A" opacity="1.000000" stroke="none" 
	d="
M647.423462,823.014282 
	C649.453918,811.451538 641.921082,803.978210 637.140686,795.521484 
	C633.438660,788.972290 629.338684,782.648071 624.845947,775.291016 
	C629.907166,775.291016 634.291748,775.086426 638.630432,775.442078 
	C639.650757,775.525696 640.683533,777.398499 641.423767,778.621765 
	C644.669189,783.985107 647.782043,789.428589 650.997192,794.810486 
	C653.080322,798.297302 654.814087,798.280457 656.922607,794.796326 
	C660.253357,789.292603 663.777832,783.888245 666.766541,778.203247 
	C668.220032,775.438477 670.093201,775.044800 672.731201,775.163635 
	C675.822205,775.302795 678.924255,775.196167 682.812927,775.196167 
	C677.841980,783.519897 673.667358,791.348694 668.689209,798.627869 
	C662.835022,807.187744 659.130676,815.884521 660.072510,826.690674 
	C661.022461,837.591553 660.263672,835.874451 650.740662,835.981506 
	C649.921021,835.990723 649.100403,835.901428 647.423279,835.812500 
	C647.423279,831.652100 647.423279,827.579163 647.423462,823.014282 
z"/>
<path fill="#C42436" opacity="1.000000" stroke="none" 
	d="
M1015.650757,775.204834 
	C1020.337830,777.133728 1017.549316,780.719421 1017.771057,783.464600 
	C1017.825439,784.138000 1014.826538,785.636658 1013.158386,785.758728 
	C1008.699036,786.085083 1004.200073,785.869873 999.139648,785.869873 
	C999.139648,802.518127 999.139648,818.906250 999.139648,836.033997 
	C995.001099,836.033997 991.416016,836.148376 987.841858,836.000488 
	C984.521973,835.863159 984.606506,833.346008 984.610596,830.920349 
	C984.632507,817.928101 984.623230,804.935852 984.624573,791.943604 
	C984.624756,790.135925 984.624573,788.328186 984.624573,785.864685 
	C979.909302,785.864685 975.623474,785.677673 971.362000,785.919739 
	C967.467224,786.140869 966.493164,784.316772 966.558472,780.820984 
	C966.620239,777.510925 966.670837,775.028381 971.213135,775.093445 
	C985.868103,775.303345 1000.527832,775.179626 1015.650757,775.204834 
z"/>
<path fill="#C5293B" opacity="1.000000" stroke="none" 
	d="
M596.256165,797.027588 
	C596.255920,810.142273 596.255920,822.761719 596.255920,835.695679 
	C591.805786,835.695679 587.765198,835.695679 583.103577,835.695679 
	C583.103577,829.699524 583.102844,823.934265 583.103760,818.169067 
	C583.105286,809.021423 583.005493,799.872131 583.160522,790.727051 
	C583.222351,787.081421 581.890991,785.567505 578.197876,785.742493 
	C574.072998,785.937927 569.931702,785.787354 565.396240,785.787354 
	C565.396240,782.297058 565.396240,779.083130 565.396240,775.191956 
	C570.088684,775.191956 574.855591,775.192078 579.622437,775.191956 
	C589.768005,775.191772 599.916870,775.341858 610.057434,775.116638 
	C614.065002,775.027527 615.252380,776.544128 615.263733,780.361511 
	C615.275635,784.351013 614.110474,786.330383 609.810669,785.841370 
	C607.511719,785.579956 605.158936,785.790771 602.830444,785.790833 
	C596.256592,785.790894 596.256531,785.791382 596.255432,792.540527 
	C596.255249,793.871155 596.256042,795.201721 596.256165,797.027588 
z"/>
<path fill="#C73042" opacity="1.000000" stroke="none" 
	d="
M548.636719,792.002258 
	C548.636597,806.910339 548.636597,821.318848 548.636597,835.833801 
	C543.991577,835.833801 540.037720,835.833801 535.721313,835.833801 
	C535.721313,815.780457 535.721313,795.911987 535.721313,775.602844 
	C539.766357,775.602844 543.937561,775.602844 548.636902,775.602844 
	C548.636902,780.959900 548.636902,786.231262 548.636719,792.002258 
z"/>
<path fill="#C72E40" opacity="1.000000" stroke="none" 
	d="
M250.791351,805.000000 
	C250.791626,813.159973 250.797729,820.819885 250.790741,828.479858 
	C250.783890,835.996277 250.778046,835.996399 243.377884,835.999512 
	C241.556931,836.000244 239.735977,835.999634 237.444336,835.999634 
	C237.444336,815.837219 237.444336,795.962341 237.444336,775.228027 
	C240.918060,775.228027 244.706207,774.885742 248.355072,775.447754 
	C249.378372,775.605408 250.637512,778.404907 250.684494,780.024597 
	C250.920975,788.177246 250.792068,796.340454 250.791351,805.000000 
z"/>
<path fill="#BD081D" opacity="1.000000" stroke="none" 
	d="
M669.510193,667.505859 
	C670.091370,668.006958 670.940796,668.955322 670.945190,669.907654 
	C671.023193,686.883179 671.005493,703.859253 670.967773,720.835083 
	C670.966431,721.431519 670.546814,722.027039 669.988159,722.779419 
	C669.564514,704.608887 669.474792,686.281921 669.510193,667.505859 
z"/>
<path fill="#FFFFFF" opacity="1.000000" stroke="none" 
	d="
M850.192871,272.748718 
	C850.135132,272.181305 850.317871,271.825745 850.500488,271.470154 
	C850.478088,271.966949 850.455688,272.463745 850.192871,272.748718 
z"/>
<path fill="#FFFDFD" opacity="1.000000" stroke="none" 
	d="
M232.444946,325.541595 
	C242.702972,340.686493 252.697464,355.571350 262.801056,370.381775 
	C272.809875,385.053284 282.928711,399.649750 293.433655,414.910156 
	C274.941223,422.169281 256.741333,429.313568 238.321899,436.544037 
	C230.598801,390.675568 222.933258,345.149048 215.083298,298.527191 
	C221.124435,307.942261 226.676819,316.595581 232.444946,325.541595 
z"/>
<path fill="#FCF5F6" opacity="1.000000" stroke="none" 
	d="
M774.175415,807.747375 
	C772.284302,812.694946 771.481750,818.244263 768.319092,821.502747 
	C759.824341,830.254700 746.912170,826.642395 743.034485,815.033081 
	C740.425781,807.223083 741.039856,793.926025 748.504822,788.445923 
	C757.256226,782.021423 770.143555,785.848755 772.821045,796.488098 
	C773.701477,799.986633 773.755676,803.693054 774.175415,807.747375 
z"/>
<path fill="#FAECED" opacity="1.000000" stroke="none" 
	d="
M431.432251,786.255981 
	C436.229645,788.314331 437.271027,791.809998 436.479889,796.217651 
	C435.690918,800.613525 432.608063,802.041687 428.650726,802.391174 
	C427.499451,802.492798 426.350433,802.674805 425.197906,802.698303 
	C412.190643,802.963867 411.452301,802.209106 413.240540,789.228821 
	C413.430817,787.847595 415.170898,785.642212 416.260040,785.600647 
	C421.183472,785.412720 426.131439,785.865295 431.432251,786.255981 
z"/>
<path fill="#F7E3E5" opacity="1.000000" stroke="none" 
	d="
M482.364197,694.320190 
	C483.228973,696.624084 483.948364,698.567139 484.884583,701.095825 
	C479.537659,701.095825 474.965942,701.095825 469.696289,701.095825 
	C472.308167,693.984558 474.639282,687.637695 476.970398,681.290771 
	C477.451324,681.343018 477.932220,681.395264 478.413147,681.447449 
	C479.681702,685.618103 480.950256,689.788757 482.364197,694.320190 
z"/>
<path fill="#F7E3E5" opacity="1.000000" stroke="none" 
	d="
M1048.058105,812.159302 
	C1045.835205,812.160278 1044.073120,812.160278 1041.420532,812.160278 
	C1043.789917,805.226746 1045.836426,799.238037 1047.882935,793.249329 
	C1048.347290,793.088562 1048.811646,792.927734 1049.276123,792.766968 
	C1051.591919,798.809631 1053.907715,804.852234 1056.541016,811.723206 
	C1053.314575,811.898193 1050.916748,812.028259 1048.058105,812.159302 
z"/>
</svg>